<svg width="48" height="55" viewBox="0 0 48 55" fill="none" xmlns="http://www.w3.org/2000/svg">
<path opacity="0.3" d="M25.6917 36.5585C25.1083 38.9735 22.95 41.7035 18.75 42.6223C27.2084 48.8435 35.2 43.1473 34.9667 36.5323C34.9667 31.151 26.3625 28.106 25.4292 23.1973C22.8917 29.1298 26.625 32.8048 25.6917 36.5585Z" fill="#FF0000"/>
<path d="M45.816 29.4186C41.2369 18.7086 24.9327 18.1311 28.8702 2.56488C29.1619 1.40988 27.791 0.51738 26.6827 1.12113C16.0952 6.73863 8.48268 17.9999 14.8702 32.7524C15.3952 33.9599 13.8202 35.0886 12.6827 34.3011C7.40352 30.7049 6.84935 25.5336 7.31602 21.8324C7.49102 20.4674 5.50768 19.8111 4.66185 20.9399C2.67852 23.6699 0.666016 28.0799 0.666016 34.7211C1.77435 49.4211 15.5702 53.9361 20.5285 54.5136C27.616 55.3274 35.2869 54.1461 40.7994 49.6049C46.866 44.5386 49.0827 36.4536 45.816 29.4186ZM18.7493 42.6224C22.9494 41.7036 25.1077 38.9736 25.691 36.5586C26.6535 32.8049 22.891 29.1299 25.4285 23.1974C26.391 28.1061 34.966 31.1774 34.966 36.5324C35.1994 43.1736 27.2077 48.8699 18.7493 42.6224Z" fill="#FF0000"/>
</svg>
