<svg width="21" height="21" viewBox="0 0 21 21" fill="none" xmlns="http://www.w3.org/2000/svg">
<path d="M18.375 2.625V18.375H2.625V2.625H18.375ZM18.375 0.375H2.625C1.3875 0.375 0.375 1.3875 0.375 2.625V18.375C0.375 19.6125 1.3875 20.625 2.625 20.625H18.375C19.6125 20.625 20.625 19.6125 20.625 18.375V2.625C20.625 1.3875 19.6125 0.375 18.375 0.375ZM8.25 17.25V12.75H9.375V9.9375C9.375 8.7 8.3625 7.6875 7.125 7.6875H6C4.7625 7.6875 3.75 8.7 3.75 9.9375V12.75H4.875V17.25H8.25ZM6.5625 6.5625C7.33875 6.5625 7.96875 5.9325 7.96875 5.15625C7.96875 4.38 7.33875 3.75 6.5625 3.75C5.78625 3.75 5.15625 4.38 5.15625 5.15625C5.15625 5.9325 5.78625 6.5625 6.5625 6.5625ZM17.25 9.375L14.4375 4.875L11.625 9.375H17.25ZM11.625 11.625L14.4375 16.125L17.25 11.625H11.625Z" fill="#FF0000"/>
</svg>
