<svg width="25" height="25" viewBox="0 0 25 25" fill="none" xmlns="http://www.w3.org/2000/svg">
<g clip-path="url(#clip0_8554_21204)">
<path d="M9.24101 16.3047C8.79097 16.3047 8.42578 16.6699 8.42578 17.1199V20.3808C8.42578 20.8308 8.79097 21.196 9.24101 21.196C9.69106 21.196 10.0508 20.8309 10.0508 20.3808V17.1199C10.0508 16.6698 9.69106 16.3047 9.24101 16.3047Z" fill="#AEAFB1"/>
<path d="M12.4988 13.0469C12.0488 13.0469 11.6836 13.412 11.6836 13.8621V17.1229C11.6836 17.573 12.0488 17.9382 12.4988 17.9382C12.9489 17.9382 13.3086 17.573 13.3086 17.1229V13.8621C13.3086 13.412 12.9489 13.0469 12.4988 13.0469Z" fill="#AEAFB1"/>
<path d="M26.5151 24.1379C24.8957 23.3243 22.9912 23.3809 21.4181 24.2487V19.6858C23.6541 17.5328 24.9456 14.5593 24.9456 11.4461C24.9456 5.13491 19.8109 0 13.4999 0C7.18902 0 2.05439 5.13491 2.05439 11.4461C2.05439 14.5593 3.33995 17.5327 5.57609 19.6858V24.2484C4.00366 23.3806 2.10496 23.3231 0.484964 24.1378C0.0504863 24.3556 -0.124328 24.8853 0.0940448 25.3198C0.311837 25.7543 0.84034 25.9303 1.27598 25.7107C2.49229 25.0997 3.94592 25.2081 5.07111 25.9957C6.98214 27.3348 9.45259 27.3348 11.3637 25.9957C12.6608 25.0877 14.338 25.0871 15.6363 25.9957C16.5918 26.6652 17.6872 26.9999 18.7825 26.9999C19.9353 26.9999 21.1266 26.5579 21.9283 25.9962C23.054 25.208 24.5094 25.0997 25.724 25.7107C26.1596 25.9303 26.6881 25.7543 26.9059 25.3198C27.1244 24.8854 26.9495 24.3557 26.5151 24.1379ZM13.4999 5.28284C16.5988 5.28284 19.1631 7.58374 19.5926 10.5656C14.9589 10.5656 12.0821 10.5656 7.39943 10.5656C7.82816 7.58258 10.4007 5.28284 13.4999 5.28284ZM19.6629 25.1167C18.9235 25.3002 18.1497 25.2497 17.4317 24.9653C17.7102 24.8173 17.8962 24.5278 17.8962 24.1906V20.2508C17.8962 19.7647 17.5077 19.3703 17.0217 19.3703C16.5356 19.3703 16.1412 19.7647 16.1412 20.2508V24.1906C16.1412 24.2137 16.1463 24.2354 16.1481 24.2581C15.5859 23.9449 14.9854 23.7282 14.3745 23.6269V22.0117C14.3745 21.5256 13.986 21.1312 13.4999 21.1312C13.0139 21.1312 12.6195 21.5256 12.6195 22.0117V23.6269C11.8262 23.7584 11.0522 24.0643 10.3536 24.5534C9.44526 25.1894 8.34685 25.37 7.32655 25.1153C7.32724 25.1003 7.33103 12.3266 7.33103 12.3266C8.32961 12.3266 8.10132 12.3266 9.09774 12.3266V14.968C9.09774 15.4541 9.49214 15.8485 9.97819 15.8485C10.4642 15.8485 10.8527 15.4541 10.8527 14.968V12.3266H16.1412V16.729C16.1412 17.215 16.5356 17.6095 17.0216 17.6095C17.5077 17.6095 17.8962 17.215 17.8962 16.729V12.3266H19.6629V25.1167H19.6629Z" fill="#AEAFB1"/>
<path opacity="0.3" d="M7 19V25H20V12H7V19Z" fill="#AEAFB1"/>
</g>
<defs>
<clipPath id="clip0_8554_21204">
<rect width="25" height="25" fill="white"/>
</clipPath>
</defs>
</svg>
