<svg width="69" height="69" viewBox="0 0 69 69" fill="none" xmlns="http://www.w3.org/2000/svg">
<g clip-path="url(#clip0_11492_1579)">
<path d="M1.18306 68.2801C0.0118078 67.25 0.0118078 65.3449 1.04194 64.1737L6.61597 58.3033C8.52102 56.3983 11.0188 55.227 13.6576 55.227C16.2964 55.227 18.7942 56.2571 20.6992 58.3033C22.3079 59.912 24.9609 59.912 26.5696 58.3033C28.5029 56.2289 31.3252 54.8883 33.9076 54.9307C36.5464 54.9307 39.0441 55.9608 40.9492 58.007C40.9492 58.007 42.9248 60.5188 44.9145 60.3495C46.8901 60.4624 48.5835 58.2892 48.5835 58.2892C50.4885 56.3841 52.9863 55.2129 55.6251 55.2129C58.2639 55.2129 60.7617 56.243 62.6667 58.2892L67.9585 63.7221C68.9887 64.8934 68.9887 66.6573 67.8174 67.8285C66.6462 68.9998 64.8822 68.8587 63.711 67.6874L58.4192 62.2545C56.7964 60.3636 53.8329 60.8998 52.3936 62.9883C50.4885 64.8934 47.9908 66.0646 45.352 66.0646C42.7696 66.1493 39.5804 64.9075 37.2802 61.9582C35.8832 60.3495 33.2302 60.0672 31.4098 61.9582C29.787 63.8773 26.6966 65.4014 24.0719 65.3308C21.433 65.2603 18.7801 64.3007 17.0302 62.2545C15.4215 60.6458 12.7686 60.6458 11.1599 62.2545L5.58584 68.1249C4.71093 68.7176 3.201 69.6771 1.18306 68.2801Z" fill="#FF0000"/>
<g clip-path="url(#clip1_11492_1579)">
<path opacity="0.3" d="M34.5002 10.957C29.2562 15.7318 20.7002 24.9226 20.7002 31.7398C20.7002 39.3574 26.8826 45.5398 34.5002 45.5398C42.1178 45.5398 48.3002 39.3574 48.3002 31.7398C48.3002 24.9226 39.7442 15.7318 34.5002 10.957ZM36.101 42.6694C29.9462 43.525 24.4538 39.2746 23.5706 33.313C23.4602 32.485 24.095 31.7398 24.9506 31.7398C25.6406 31.7398 26.2202 32.2366 26.3306 32.9266C26.993 37.5082 31.271 40.5718 35.7146 39.937C36.5426 39.8266 37.2878 40.4614 37.2878 41.2894C37.2602 42.0622 36.7082 42.5866 36.101 42.6694Z" fill="#FF0000"/>
<path d="M34.5005 5.51953C34.5005 5.51953 16.5605 19.7611 16.5605 31.7395C16.5605 41.6479 24.5921 49.6795 34.5005 49.6795C44.4089 49.6795 52.4405 41.6479 52.4405 31.7395C52.4405 19.7611 34.5005 5.51953 34.5005 5.51953ZM34.5005 45.5395C26.8829 45.5395 20.7005 39.3571 20.7005 31.7395C20.7005 24.9223 29.2565 15.7315 34.5005 10.9567C39.7445 15.7315 48.3005 24.8947 48.3005 31.7395C48.3005 39.3571 42.1181 45.5395 34.5005 45.5395ZM26.3033 32.9263C26.9657 37.5079 31.2437 40.5715 35.6873 39.9367C36.5153 39.8263 37.2605 40.4611 37.2605 41.2891C37.2605 42.0619 36.7085 42.5863 36.1013 42.6691C29.9465 43.5247 24.4541 39.2743 23.5709 33.3127C23.4605 32.4847 24.0953 31.7395 24.9509 31.7395C25.6409 31.7395 26.2205 32.2363 26.3033 32.9263Z" fill="#FF0000"/>
</g>
</g>
<defs>
<clipPath id="clip0_11492_1579">
<rect width="69" height="69" fill="white"/>
</clipPath>
<clipPath id="clip1_11492_1579">
<rect width="55.2" height="55.2" fill="white" transform="translate(6.90039)"/>
</clipPath>
</defs>
</svg>
