<svg width="27" height="27" viewBox="0 0 27 27" fill="none" xmlns="http://www.w3.org/2000/svg">
<path d="M0 22.5152V17.0528C0 16.7614 0.236039 16.5254 0.527449 16.5254H3.72415V23.0426H0.527449C0.236039 23.0426 0 22.8066 0 22.5152Z" fill="#FF0000" fill-opacity="0.3"/>
<path d="M6.51758 23.0427H20.4831V16.5254H6.51758V23.0427Z" fill="#FF0000" fill-opacity="0.3"/>
<path d="M23.2754 23.0427V16.5254H26.4721C26.7635 16.5254 26.9995 16.7614 26.9995 17.0528V22.5152C26.9995 22.8066 26.7635 23.0427 26.4721 23.0427H23.2754Z" fill="#FF0000" fill-opacity="0.3"/>
<path d="M20.4824 24.378V15.1915C20.4824 14.9001 20.7185 14.6641 21.0099 14.6641H22.7481C23.0395 14.6641 23.2755 14.9001 23.2755 15.1915V24.378C23.2755 24.6695 23.0395 24.9055 22.7481 24.9055H21.0099C20.7184 24.9054 20.4824 24.6694 20.4824 24.378Z" fill="#FF0000"/>
<path d="M3.72461 24.378V15.1915C3.72461 14.9001 3.96065 14.6641 4.25206 14.6641H5.99029C6.2817 14.6641 6.51774 14.9001 6.51774 15.1915V24.378C6.51774 24.6695 6.2817 24.9055 5.99029 24.9055H4.25201C3.9606 24.9054 3.72461 24.6694 3.72461 24.378Z" fill="#FF0000"/>
<path d="M19.5527 8.14647C19.5527 11.4889 16.8434 14.1982 13.501 14.1982C10.1586 14.1982 7.44922 11.4889 7.44922 8.14647C7.44922 4.80406 10.1586 2.09473 13.501 2.09473C16.8434 2.09473 19.5527 4.80406 19.5527 8.14647Z" fill="#FF0000" fill-opacity="0.3"/>
<path d="M13.5001 7.68103C13.2436 7.68103 13.0345 7.88959 13.0345 8.14656C13.0345 8.40354 13.2436 8.6121 13.5001 8.6121C13.7566 8.6121 13.9656 8.40354 13.9656 8.14656C13.9656 7.88959 13.7566 7.68103 13.5001 7.68103ZM13.5001 9.54313C12.7301 9.54313 12.1035 8.91654 12.1035 8.14656C12.1035 7.37659 12.7301 6.75 13.5001 6.75C14.2701 6.75 14.8966 7.37659 14.8966 8.14656C14.8966 8.91654 14.2701 9.54313 13.5001 9.54313Z" fill="#FF0000"/>
<path d="M13.5007 7.68082C13.2437 7.68082 13.0352 7.47273 13.0352 7.21528V5.35323C13.0352 5.09578 13.2437 4.8877 13.5007 4.8877C13.7577 4.8877 13.9662 5.09578 13.9662 5.35323V7.21528C13.9662 7.47273 13.7577 7.68082 13.5007 7.68082Z" fill="#FF0000"/>
<path d="M13.5007 14.6639C13.2437 14.6639 13.0352 14.4559 13.0352 14.1984V11.8708C13.0352 11.6134 13.2437 11.4053 13.5007 11.4053C13.7577 11.4053 13.9662 11.6134 13.9662 11.8708V14.1984C13.9662 14.4559 13.7577 14.6639 13.5007 14.6639Z" fill="#FF0000"/>
<path d="M13.4995 14.198C12.5578 14.198 11.6701 13.9764 10.875 13.5928L9.77539 16.5255H17.2236L16.1241 13.5928C15.329 13.9764 14.4413 14.198 13.4995 14.198Z" fill="#FF0000"/>
<path d="M19.5529 8.1462C19.5529 7.98884 19.5412 7.83475 19.5292 7.68066H17.2253C16.9683 7.68066 16.7598 7.88875 16.7598 8.1462C16.7598 8.40365 16.9683 8.61174 17.2253 8.61174H19.5292C19.5412 8.45765 19.5529 8.30356 19.5529 8.1462Z" fill="#FF0000"/>
<path d="M9.77681 7.68066H7.47295C7.46082 7.83475 7.44922 7.98884 7.44922 8.1462C7.44922 8.30356 7.46087 8.45765 7.47295 8.61174H9.77681C10.0338 8.61174 10.2423 8.40365 10.2423 8.1462C10.2423 7.88875 10.0338 7.68066 9.77681 7.68066Z" fill="#FF0000"/>
</svg>
