<svg width="40" height="50" viewBox="0 0 40 50" fill="none" xmlns="http://www.w3.org/2000/svg">
<path d="M31.1448 34.9731C31.5431 34.4017 32.1963 34.0625 32.8925 34.0656C33.5887 34.0687 34.2389 34.4136 34.6321 34.9886C34.677 35.0542 35.7445 36.6187 36.8252 38.5018C38.9646 42.2298 39.2069 43.822 39.2031 44.6953C39.1876 48.2027 36.323 51.0435 32.8175 51.028C29.3119 51.0125 26.4726 48.1464 26.4881 44.639C26.492 43.7657 26.7484 42.1757 28.9207 38.4668C30.018 36.5933 31.0993 35.0384 31.1448 34.9731Z" fill="#FF0000"/>
<path d="M3.28751 8.48554L11.7685 8.52306L13.8887 8.53244L13.9075 4.29392L11.7873 4.28454C10.6163 4.27936 9.67122 3.3263 9.6764 2.15591C9.68159 0.985514 10.6351 0.040852 11.806 0.0460321L20.287 0.0835511C21.4579 0.0887312 22.403 1.04179 22.3978 2.21219C22.3927 3.38258 21.4391 4.32724 20.2682 4.32206L18.148 4.31268L18.1292 8.5512L20.2494 8.56058L28.7304 8.59809C34.5759 8.62395 39.3105 13.3985 39.2846 19.2413L39.2471 27.7183C39.2419 28.8887 38.2884 29.8334 37.1174 29.8282L28.6365 29.7907C27.4655 29.7855 26.5204 28.8324 26.5256 27.662L26.5538 21.3043L20.1931 21.2761L11.7121 21.2386L3.23117 21.2011C2.06023 21.1959 1.11513 20.2428 1.12032 19.0724L1.15788 10.5954C1.16307 9.42502 2.11658 8.48036 3.28751 8.48554Z" fill="#FF0000"/>
</svg>
