<svg width="55" height="55" viewBox="0 0 55 55" fill="none" xmlns="http://www.w3.org/2000/svg">
<path d="M50.3249 38.833C49.3504 38.3783 48.1377 37.8125 45.9148 37.8125C43.6919 37.8125 42.4791 38.3784 41.5048 38.833C40.6688 39.2231 40.0086 39.5312 38.5482 39.5312C37.0878 39.5312 36.4278 39.2232 35.592 38.833C34.6176 38.3784 33.405 37.8125 31.1821 37.8125C28.9592 37.8125 27.7466 38.3785 26.7723 38.833C25.9365 39.2231 25.2764 39.5312 23.8162 39.5312C22.356 39.5312 21.696 39.2232 20.8603 38.833C19.8859 38.3784 18.6734 37.8125 16.4506 37.8125C14.2278 37.8125 13.0151 38.3785 12.0408 38.833C11.205 39.2231 10.5449 39.5312 9.08467 39.5312C7.62448 39.5312 6.96437 39.2232 6.12853 38.833C5.15421 38.3785 3.94152 37.8125 1.71875 37.8125V41.25C3.17894 41.25 3.83904 41.5581 4.67489 41.9482C5.64921 42.4029 6.86189 42.9688 9.08467 42.9688C11.3074 42.9688 12.5201 42.4027 13.4944 41.9482C14.3303 41.5582 14.9904 41.25 16.4506 41.25C17.9108 41.25 18.5708 41.5581 19.4065 41.9482C20.3808 42.4029 21.5934 42.9688 23.8162 42.9688C26.039 42.9688 27.2516 42.4027 28.226 41.9482C29.0618 41.5582 29.722 41.25 31.1821 41.25C32.6422 41.25 33.3025 41.5581 34.1383 41.9482C35.1128 42.4029 36.3254 42.9688 38.5482 42.9688C40.7711 42.9688 41.9839 42.4029 42.9583 41.9482C43.7942 41.5582 44.4545 41.25 45.9148 41.25C47.3751 41.25 48.0354 41.5581 48.8712 41.9482C49.8457 42.403 51.0584 42.9688 53.2812 42.9688V39.5312C51.821 39.5312 51.1606 39.2232 50.3249 38.833Z" fill="#FF0000"/>
<path d="M45.9148 48.125C43.6919 48.125 42.4791 48.6909 41.5048 49.1455C40.6688 49.5356 40.0086 49.8438 38.5482 49.8438C37.0878 49.8438 36.4278 49.5357 35.592 49.1455C34.6176 48.6909 33.405 48.125 31.1821 48.125C28.9592 48.125 27.7466 48.691 26.7723 49.1455C25.9365 49.5356 25.2764 49.8438 23.8162 49.8438C22.356 49.8438 21.696 49.5357 20.8603 49.1455C19.8859 48.6909 18.6734 48.125 16.4506 48.125C14.2278 48.125 13.0151 48.691 12.0408 49.1455C11.205 49.5356 10.5449 49.8438 9.08467 49.8438C7.62448 49.8438 6.96437 49.5357 6.12853 49.1455C5.15421 48.691 3.94152 48.125 1.71875 48.125V51.5625C3.17894 51.5625 3.83904 51.8706 4.67489 52.2607C5.64921 52.7154 6.86189 53.2813 9.08467 53.2813C11.3074 53.2813 12.5201 52.7152 13.4944 52.2607C14.3303 51.8707 14.9904 51.5625 16.4506 51.5625C17.9108 51.5625 18.5708 51.8706 19.4065 52.2607C20.3808 52.7154 21.5934 53.2813 23.8162 53.2813C26.039 53.2813 27.2516 52.7152 28.226 52.2607C29.0618 51.8707 29.722 51.5625 31.1821 51.5625C32.6422 51.5625 33.3025 51.8706 34.1383 52.2607C35.1128 52.7154 36.3254 53.2813 38.5482 53.2813C40.7711 53.2813 41.9839 52.7154 42.9583 52.2607C43.7942 51.8707 44.4545 51.5625 45.9148 51.5625C47.3751 51.5625 48.0354 51.8706 48.8712 52.2607C49.8457 52.7155 51.0584 53.2813 53.2812 53.2813V49.8438C51.821 49.8438 51.1606 49.5357 50.3249 49.1455C49.3504 48.6909 48.1377 48.125 45.9148 48.125Z" fill="#FF0000"/>
<path d="M26.6406 29.2188H42.1094V35.2344H45.5469V12.4478C45.5455 11.4046 45.862 10.3856 46.4542 9.52671L51.8221 1.71875H47.6505L43.6215 7.57926C42.6346 9.01083 42.1071 10.7091 42.1094 12.4478V17.1875H26.6406V12.4478C26.6393 11.4046 26.9558 10.3856 27.5479 9.52671L32.9159 1.71875H28.7443L24.7152 7.57926C23.7283 9.01083 23.2009 10.7091 23.2031 12.4478V35.2344H26.6406V29.2188ZM26.6406 20.625H42.1094V25.7812H26.6406V20.625Z" fill="#FF0000"/>
</svg>
