<svg width="27" height="27" viewBox="0 0 27 27" fill="none" xmlns="http://www.w3.org/2000/svg">
<g clip-path="url(#clip0_6936_3527)">
<path opacity="0.3" d="M21.375 5.625V21.375H5.625V5.625H21.375ZM11.25 20.25V15.75H12.375V12.9375C12.375 11.7 11.3625 10.6875 10.125 10.6875H9C7.7625 10.6875 6.75 11.7 6.75 12.9375V15.75H7.875V20.25H11.25ZM9.5625 9.5625C10.3388 9.5625 10.9688 8.9325 10.9688 8.15625C10.9688 7.38 10.3388 6.75 9.5625 6.75C8.78625 6.75 8.15625 7.38 8.15625 8.15625C8.15625 8.9325 8.78625 9.5625 9.5625 9.5625ZM20.25 12.375L17.4375 7.875L14.625 12.375H20.25ZM14.625 14.625L17.4375 19.125L20.25 14.625H14.625Z" fill="#FF0000"/>
<path d="M21.375 5.625V21.375H5.625V5.625H21.375ZM21.375 3.375H5.625C4.3875 3.375 3.375 4.3875 3.375 5.625V21.375C3.375 22.6125 4.3875 23.625 5.625 23.625H21.375C22.6125 23.625 23.625 22.6125 23.625 21.375V5.625C23.625 4.3875 22.6125 3.375 21.375 3.375ZM11.25 20.25V15.75H12.375V12.9375C12.375 11.7 11.3625 10.6875 10.125 10.6875H9C7.7625 10.6875 6.75 11.7 6.75 12.9375V15.75H7.875V20.25H11.25ZM9.5625 9.5625C10.3387 9.5625 10.9688 8.9325 10.9688 8.15625C10.9688 7.38 10.3387 6.75 9.5625 6.75C8.78625 6.75 8.15625 7.38 8.15625 8.15625C8.15625 8.9325 8.78625 9.5625 9.5625 9.5625ZM20.25 12.375L17.4375 7.875L14.625 12.375H20.25ZM14.625 14.625L17.4375 19.125L20.25 14.625H14.625Z" fill="#FF0000"/>
</g>
<defs>
<clipPath id="clip0_6936_3527">
<rect width="27" height="27" fill="white"/>
</clipPath>
</defs>
</svg>
