<svg width="27" height="27" viewBox="0 0 27 27" fill="none" xmlns="http://www.w3.org/2000/svg">
<path d="M0.930383 11.6355C0.673408 11.6355 0.464844 11.4275 0.464844 11.17V10.239C0.464844 9.98153 0.673408 9.77344 0.930383 9.77344C1.18736 9.77344 1.39592 9.98153 1.39592 10.239V11.17C1.39592 11.4275 1.18736 11.6355 0.930383 11.6355Z" fill="#FF0000"/>
<path d="M3.25851 11.6355C3.00153 11.6355 2.79297 11.4275 2.79297 11.17V10.239C2.79297 9.98153 3.00153 9.77344 3.25851 9.77344C3.51548 9.77344 3.72405 9.98153 3.72405 10.239V11.17C3.72405 11.4275 3.51548 11.6355 3.25851 11.6355Z" fill="#FF0000"/>
<path d="M0.930383 17.2215C0.673408 17.2215 0.464844 17.0134 0.464844 16.7559V15.8249C0.464844 15.5675 0.673408 15.3594 0.930383 15.3594C1.18736 15.3594 1.39592 15.5675 1.39592 15.8249V16.7559C1.39592 17.0134 1.18736 17.2215 0.930383 17.2215Z" fill="#FF0000"/>
<path d="M3.25851 17.2215C3.00153 17.2215 2.79297 17.0134 2.79297 16.7559V15.8249C2.79297 15.5675 3.00153 15.3594 3.25851 15.3594C3.51548 15.3594 3.72405 15.5675 3.72405 15.8249V16.7559C3.72405 17.0134 3.51548 17.2215 3.25851 17.2215Z" fill="#FF0000"/>
<path d="M23.739 11.6355C23.482 11.6355 23.2734 11.4275 23.2734 11.17V10.239C23.2734 9.98153 23.482 9.77344 23.739 9.77344C23.996 9.77344 24.2045 9.98153 24.2045 10.239V11.17C24.2045 11.4275 23.996 11.6355 23.739 11.6355Z" fill="#FF0000"/>
<path d="M26.0671 11.6355C25.8101 11.6355 25.6016 11.4275 25.6016 11.17V10.239C25.6016 9.98153 25.8101 9.77344 26.0671 9.77344C26.3241 9.77344 26.5326 9.98153 26.5326 10.239V11.17C26.5326 11.4275 26.3241 11.6355 26.0671 11.6355Z" fill="#FF0000"/>
<path d="M23.739 17.2215C23.482 17.2215 23.2734 17.0134 23.2734 16.7559V15.8249C23.2734 15.5675 23.482 15.3594 23.739 15.3594C23.996 15.3594 24.2045 15.5675 24.2045 15.8249V16.7559C24.2045 17.0134 23.996 17.2215 23.739 17.2215Z" fill="#FF0000"/>
<path d="M26.0671 17.2215C25.8101 17.2215 25.6016 17.0134 25.6016 16.7559V15.8249C25.6016 15.5675 25.8101 15.3594 26.0671 15.3594C26.3241 15.3594 26.5326 15.5675 26.5326 15.8249V16.7559C26.5326 17.0134 26.3241 17.2215 26.0671 17.2215Z" fill="#FF0000"/>
<path d="M0 15.8271H4.65518V11.1719H0V15.8271Z" fill="#FF0000"/>
<path d="M22.3438 15.8271H26.9989V11.1719H22.3438V15.8271Z" fill="#FF0000"/>
<path d="M22.3459 13.5011C22.3459 18.3857 18.3862 22.3459 13.5011 22.3459C8.61592 22.3459 4.65625 18.3857 4.65625 13.5011C4.65625 8.61639 8.61592 4.65625 13.5011 4.65625C18.3862 4.65625 22.3459 8.61639 22.3459 13.5011Z" fill="#FF0000" fill-opacity="0.42"/>
<path d="M12.1017 17.6934C12.1017 18.4648 11.4766 19.09 10.7052 19.09C9.93376 19.09 9.30859 18.4648 9.30859 17.6934C9.30859 16.922 9.93376 16.2969 10.7052 16.2969C11.4766 16.2969 12.1017 16.9221 12.1017 17.6934Z" fill="#FF0000" fill-opacity="0.38"/>
<path d="M17.6916 17.6934C17.6916 18.4648 17.0664 19.09 16.295 19.09C15.5236 19.09 14.8984 18.4648 14.8984 17.6934C14.8984 16.922 15.5236 16.2969 16.295 16.2969C17.0664 16.2969 17.6916 16.9221 17.6916 17.6934Z" fill="#FF0000"/>
<path d="M8.37891 13.5021H18.6202V9.3125H8.37891V13.5021Z" fill="#FF0000"/>
<path d="M14.4304 12.1076C14.1734 12.1076 13.9648 11.8995 13.9648 11.642V11.1765C13.9648 10.919 14.1734 10.7109 14.4304 10.7109C14.6874 10.7109 14.8959 10.919 14.8959 11.1765V11.642C14.8959 11.8995 14.6874 12.1076 14.4304 12.1076Z" fill="#FF0000"/>
<path d="M16.2937 12.1076C16.0367 12.1076 15.8281 11.8995 15.8281 11.642V11.1765C15.8281 10.919 16.0367 10.7109 16.2937 10.7109C16.5506 10.7109 16.7592 10.919 16.7592 11.1765V11.642C16.7592 11.8995 16.5506 12.1076 16.2937 12.1076Z" fill="#FF0000"/>
</svg>
