<svg width="27" height="27" viewBox="0 0 27 27" fill="none" xmlns="http://www.w3.org/2000/svg">
<g clip-path="url(#clip0_6936_3579)">
<path d="M17.2246 13.5C17.2246 16.8424 14.5152 19.5517 11.1728 19.5517C7.83043 19.5517 5.12109 16.8424 5.12109 13.5C5.12109 10.1576 7.83043 7.44824 11.1728 7.44824C14.5152 7.44824 17.2246 10.1576 17.2246 13.5Z" fill="#FF0000" fill-opacity="0.3"/>
<path d="M11.172 13.0345C10.915 13.0345 10.7064 13.2431 10.7064 13.5001C10.7064 13.7571 10.915 13.9656 11.172 13.9656C11.4289 13.9656 11.6375 13.7571 11.6375 13.5001C11.6375 13.2431 11.4289 13.0345 11.172 13.0345ZM11.172 14.8966C10.402 14.8966 9.77539 14.2701 9.77539 13.5001C9.77539 12.7301 10.402 12.1035 11.172 12.1035C11.9419 12.1035 12.5685 12.7301 12.5685 13.5001C12.5685 14.2701 11.9419 14.8966 11.172 14.8966Z" fill="#FF0000"/>
<path d="M11.1726 13.0343C10.9151 13.0343 10.707 12.8262 10.707 12.5688V10.7068C10.707 10.4493 10.9151 10.2412 11.1726 10.2412C11.43 10.2412 11.6381 10.4493 11.6381 10.7068V12.5688C11.6381 12.8262 11.43 13.0343 11.1726 13.0343Z" fill="#FF0000"/>
<path d="M11.1726 20.0165C10.9151 20.0165 10.707 19.8084 10.707 19.5509V17.2234C10.707 16.9659 10.9151 16.7578 11.1726 16.7578C11.43 16.7578 11.6381 16.9659 11.6381 17.2234V19.5509C11.6381 19.8084 11.43 20.0165 11.1726 20.0165Z" fill="#FF0000"/>
<path d="M11.1726 9.31006C10.9151 9.31006 10.707 9.10197 10.707 8.84453V7.44796C10.707 7.19051 10.9151 6.98242 11.1726 6.98242C11.43 6.98242 11.6381 7.19051 11.6381 7.44796V8.84453C11.6381 9.10197 11.43 9.31006 11.1726 9.31006Z" fill="#FF0000"/>
<path d="M12.1043 0C10.3032 0 8.8457 1.45753 8.8457 3.25862V7.91379C9.56215 7.61447 10.3484 7.44826 11.1733 7.44826C11.9982 7.44826 12.7844 7.61442 13.5009 7.91379V6.05174C13.5009 5.02247 14.3337 4.18969 15.3629 4.18969H21.8802V0H12.1043Z" fill="#FF0000"/>
<path d="M15.3629 22.81C14.3337 22.81 13.5009 21.9772 13.5009 20.948V19.0859C12.7844 19.3853 11.9982 19.5515 11.1733 19.5515C10.3484 19.5515 9.56215 19.3853 8.8457 19.0859V23.7411C8.8457 25.5422 10.3032 26.9997 12.1043 26.9997H21.8802V22.8101H15.3629V22.81Z" fill="#FF0000"/>
<path d="M17.2248 13.4997C17.2248 13.3424 17.2131 13.1883 17.201 13.0342H14.8972C14.6397 13.0342 14.4316 13.2423 14.4316 13.4997C14.4316 13.7572 14.6397 13.9653 14.8972 13.9653H17.201C17.2131 13.8112 17.2248 13.6571 17.2248 13.4997Z" fill="#FF0000"/>
<path d="M7.44863 13.0342H5.14482C5.1327 13.1883 5.12109 13.3424 5.12109 13.4997C5.12109 13.6571 5.13275 13.8112 5.14482 13.9653H7.44868C7.70613 13.9653 7.91422 13.7572 7.91422 13.4997C7.91422 13.2423 7.70608 13.0342 7.44863 13.0342Z" fill="#FF0000"/>
</g>
<defs>
<clipPath id="clip0_6936_3579">
<rect width="27" height="27" fill="white"/>
</clipPath>
</defs>
</svg>
