<svg width="25" height="27" viewBox="0 0 25 27" fill="none" xmlns="http://www.w3.org/2000/svg">
<path d="M22.9002 22.0485H21.4091V11.053C21.4091 9.73369 20.3397 8.66374 19.0198 8.66374H15.8623V5.56505C15.8623 5.0486 15.444 4.6298 14.9276 4.6298H14.5794L14.0947 0.807612C14.0353 0.345867 13.6423 0 13.1771 0H11.743C11.2777 0 10.8854 0.345867 10.8266 0.807612L10.3425 4.6298H9.96663C9.45018 4.6298 9.03196 5.0486 9.03196 5.56505V8.66374H5.92033C4.60098 8.66374 3.53102 9.73369 3.53102 11.053V22.0485H2.03344C0.910549 22.0485 0 22.9596 0 24.0819V27H24.9377V24.0878C24.9377 22.9625 24.026 22.0485 22.9002 22.0485ZM7.03146 11.3683H17.9086C18.348 11.3683 18.7045 11.7242 18.7045 12.1648V22.049H6.23561V12.1642C6.23561 11.7248 6.59148 11.3683 7.03146 11.3683Z" fill="#FF0000"/>
<path d="M14.3038 16.2955C14.3038 16.2955 14.0368 17.4137 13.3144 17.6378C13.3144 17.6378 13.9785 15.0308 12.3168 12.9668C12.3168 12.9668 12.1027 15.0149 10.8246 16.2961C8.87405 18.2501 10.5504 20.29 12.5921 20.29C14.8279 20.2894 15.1326 17.8201 14.3038 16.2955Z" fill="#FF0000"/>
</svg>
