<svg width="27" height="27" viewBox="0 0 27 27" fill="none" xmlns="http://www.w3.org/2000/svg">
<path opacity="0.3" d="M14.1521 16.9548C13.9271 17.9898 13.0946 19.1598 11.4746 19.5535C14.7371 22.2198 17.8196 19.7785 17.7296 16.9435C17.7296 14.6373 14.4109 13.3323 14.0509 11.2285C13.0721 13.771 14.5121 15.346 14.1521 16.9548Z" fill="#FF0000"/>
<path d="M21.915 13.8944C20.1487 9.3044 13.86 9.0569 15.3787 2.38565C15.4912 1.89065 14.9625 1.50815 14.535 1.7669C10.4512 4.1744 7.515 9.00065 9.97875 15.3231C10.1812 15.8406 9.57375 16.3244 9.135 15.9869C7.09875 14.4456 6.885 12.2294 7.065 10.6431C7.1325 10.0581 6.3675 9.7769 6.04125 10.2606C5.27625 11.4306 4.5 13.3206 4.5 16.1669C4.9275 22.4669 10.2487 24.4019 12.1612 24.6494C14.895 24.9981 17.8537 24.4919 19.98 22.5456C22.32 20.3744 23.175 16.9094 21.915 13.8944ZM11.475 19.5531C13.095 19.1594 13.9275 17.9894 14.1525 16.9544C14.5237 15.3456 13.0725 13.7706 14.0512 11.2281C14.4225 13.3319 17.73 14.6481 17.73 16.9431C17.82 19.7894 14.7375 22.2306 11.475 19.5531Z" fill="#FF0000"/>
</svg>
