<svg width="27" height="27" viewBox="0 0 27 27" fill="none" xmlns="http://www.w3.org/2000/svg">
<path opacity="0.3" d="M4.5 10.125H12.375V6.75H4.5V10.125ZM4.5 20.25H14.625V16.875H4.5V20.25Z" fill="#FF0000"/>
<path d="M14.625 12.375H4.5C3.2625 12.375 2.25 11.3625 2.25 10.125V6.75C2.25 5.5125 3.2625 4.5 4.5 4.5H14.625V12.375ZM4.5 10.125H12.375V6.75H4.5V10.125ZM16.875 22.5H4.5C3.2625 22.5 2.25 21.4875 2.25 20.25V16.875C2.25 15.6375 3.2625 14.625 4.5 14.625H16.875V22.5ZM4.5 20.25H14.625V16.875H4.5V20.25ZM24.75 10.125H22.5L24.75 4.5H16.875V12.375H19.125V22.5L24.75 10.125ZM5.34375 19.4062H7.03125V17.7187H5.34375V19.4062ZM5.34375 9.28125H7.03125V7.59375H5.34375V9.28125Z" fill="#FF0000"/>
</svg>
