<svg width="38" height="38" viewBox="0 0 38 38" fill="none" xmlns="http://www.w3.org/2000/svg">
<path d="M19 0.25C9 0.25 0.25 8.29167 0.25 19C0.25 23.4167 1.79167 27.4792 4.35417 30.6875L0.25 34.8125L3.1875 37.75L7.29167 33.6458C10.5208 36.2083 14.5833 37.75 19 37.75C23.7917 37.75 28.6042 35.9167 32.25 32.25C35.9167 28.6042 37.75 23.7917 37.75 19V0.25H19ZM33.5833 19C33.5833 22.8958 32.0625 26.5625 29.3125 29.3125C26.5625 32.0625 22.8958 33.5833 19 33.5833C10.9583 33.5833 4.41667 27.0417 4.41667 19C4.41667 15.0417 5.95833 11.3333 8.79167 8.60417C11.5417 5.89583 15.1667 4.41667 19 4.41667H33.5833V19Z" fill="#FF0000"/>
<path d="M11.6257 20.3141L20.0632 21.1474L14.9799 28.0849C14.7507 28.4182 14.7716 28.8766 15.0632 29.1682C15.3757 29.4807 15.8966 29.5016 16.2299 29.1891L26.9799 19.5432C27.6674 18.9182 27.2924 17.7724 26.3549 17.6891L17.9174 16.8557L23.0007 9.91823C23.2299 9.5849 23.2091 9.12656 22.9174 8.8349C22.6049 8.5224 22.0841 8.50156 21.7507 8.81406L11.0007 18.4599C10.3341 19.0849 10.7091 20.2307 11.6257 20.3141Z" fill="#FF0000"/>
</svg>
